<?xml version="1.0" standalone="no"?><!DOCTYPE svg PUBLIC "-//W3C//DTD SVG 1.1//EN" "http://www.w3.org/Graphics/SVG/1.1/DTD/svg11.dtd"><svg t="1518439438304" class="icon" style="" viewBox="0 0 1024 1024" version="1.1" xmlns="http://www.w3.org/2000/svg" p-id="1009" xmlns:xlink="http://www.w3.org/1999/xlink" width="32" height="32"><defs><style type="text/css"></style></defs><path d="M387.17814 442.293887h255.693858v88.37871H387.17814zM409.718975 576.040955c22.379062 37.237685 42.756427 77.102661 61.121859 119.583663h84.968147c26.048667-40.383061 46.759819-80.248036 62.136529-119.583663H409.718975z" fill="#61CD72" p-id="1010"></path><path d="M512.270306 64.42696c-247.185371 0-447.57304 200.387669-447.57304 447.57304s200.387669 447.57304 447.57304 447.57304c247.180252 0 447.56792-200.387669 447.56792-447.57304S759.450558 64.42696 512.270306 64.42696zM292.508679 297.794999h443.726303v45.104196H292.508679v-45.104196z m453.950822 443.46214H279.139808v-45.632521h139.767514c-17.134721-37.237685-35.23599-69.409186-54.28128-96.509383l35.926088-23.075303h-62.945398V395.873998h355.083431V576.040955H626.610652l35.937351 23.603629c-16.971923 37.237685-34.625754 69.23103-52.974803 95.980034h136.886301v45.632521z" fill="#61CD72" p-id="1011"></path></svg>